<?xml version="1.0" encoding="iso-8859-1"?>
<!-- Generator: Adobe Illustrator 19.0.0, SVG Export Plug-In . SVG Version: 6.00 Build 0)  -->
<svg version="1.1" id="Capa_1" xmlns="http://www.w3.org/2000/svg" xmlns:xlink="http://www.w3.org/1999/xlink" x="0px" y="0px"
	 viewBox="0 0 512 512" style="enable-background:new 0 0 512 512;" xml:space="preserve">
<g>
	<g>
		<path d="M483.462,493.045L442.903,344.65c-0.913-3.337-2.951-6.257-5.769-8.264c-9.575-6.818-87.49-62.3-98.177-69.91
			c20.862-21.438,32.889-50.421,32.889-80.758c0-60.48,0.402-63.79-1.371-74.824C369.821,47.582,321.835,0,258.332,0h-4.664
			C190.165,0,142.18,47.582,141.525,110.895c-1.773,11.034-1.371,14.341-1.371,74.824c0,30.336,12.026,59.318,32.889,80.758
			c-10.71,7.627-88.58,63.076-98.177,69.91c-2.818,2.007-4.856,4.927-5.768,8.264l-40.56,148.395
			C25.931,502.585,33.124,512,43.007,512h425.986C478.88,512,486.067,502.581,483.462,493.045z M348.009,309.75l-44.015,29.518
			L271,317.587v-17.102c15.302-1.982,30.01-6.981,43.302-14.737L348.009,309.75z M253.668,30h4.664
			c44.118,0,74.597,29.134,80.933,67.204H172.734C179.062,59.169,209.479,30,253.668,30z M327.042,127.204l-13.518,19.735H198.476
			l-13.518-19.735H327.042z M241,482H62.657l33.968-124.279l41.243-29.369l61.699,41.377c4.997,3.351,11.533,3.401,16.591,0.078
			L241,353.483V482z M241,317.588l-32.995,21.681l-44.014-29.518l33.707-24.003c13.011,7.592,27.649,12.691,43.1,14.709
			c0.068,0.009,0.135,0.02,0.202,0.029V317.588z M170.153,185.719c0-10.742-0.012-19.632-0.022-27.076l8.064,11.773
			c2.796,4.083,7.426,6.523,12.375,6.523h130.86c4.948,0,9.578-2.44,12.375-6.523l8.064-11.773
			c-0.01,7.443-0.022,16.334-0.022,27.076c0,46.739-37.878,85.724-85.847,85.724C208.042,271.443,170.153,232.48,170.153,185.719z
			 M271,482V353.484l24.842,16.324c5.036,3.309,11.574,3.287,16.591-0.078l61.699-41.377l41.243,29.369L449.343,482H271z"/>
	</g>
</g>
<g>
	<g>
		<path d="M383.427,418.093H330.83c-8.284,0-15,6.716-15,15s6.716,15,15,15h52.598c8.284,0,15-6.716,15-15
			S391.711,418.093,383.427,418.093z"/>
	</g>
</g>
<g>
	<g>
		<path d="M265.796,48.602h-19.591c-8.284,0-14.999,6.716-14.999,15s6.716,15,14.999,15h19.591c8.284,0,15-6.716,15-15
			S274.079,48.602,265.796,48.602z"/>
	</g>
</g>
<g>
</g>
<g>
</g>
<g>
</g>
<g>
</g>
<g>
</g>
<g>
</g>
<g>
</g>
<g>
</g>
<g>
</g>
<g>
</g>
<g>
</g>
<g>
</g>
<g>
</g>
<g>
</g>
<g>
</g>
</svg>
